<svg xmlns="http://www.w3.org/2000/svg" viewBox="0 0 21.233 25.783"><defs><style>.a{fill:#2e2e2e;}</style></defs><g transform="translate(0 4.55)"><path class="a" d="M2.275,16A2.272,2.272,0,0,0,0,18.275V34.958a2.272,2.272,0,0,0,2.275,2.275H18.958a2.272,2.272,0,0,0,2.275-2.275V18.275A2.272,2.272,0,0,0,18.958,16ZM19.717,34.958a.751.751,0,0,1-.758.758H2.275a.751.751,0,0,1-.758-.758V18.275a.751.751,0,0,1,.758-.758H18.958a.751.751,0,0,1,.758.758Z" transform="translate(0 -16)"/></g><g transform="translate(4.929)"><path class="a" d="M14.625,19.067H3.25v-.758A5.535,5.535,0,0,1,8.938,13a5.535,5.535,0,0,1,5.688,5.308ZM4.843,17.55h8.19a4.131,4.131,0,0,0-4.1-3.033A4.131,4.131,0,0,0,4.843,17.55Z" transform="translate(-3.25 -13)"/></g></svg>