<svg xmlns="http://www.w3.org/2000/svg" viewBox="0 0 19.288 19.288">
  <defs>
    <style>
      .cls-1 {
        fill: #2e2e2e;
      }
    </style>
  </defs>
  <path id="if_facebook_3009513" class="cls-1" d="M18.224,0H1.064A1.064,1.064,0,0,0,0,1.064v17.16a1.064,1.064,0,0,0,1.064,1.064H10.3V11.819H7.787V8.909H10.3V6.759a3.506,3.506,0,0,1,3.744-3.846,20.792,20.792,0,0,1,2.247.113v2.6H14.749c-1.206,0-1.44.579-1.44,1.423V8.911h2.88l-.374,2.917H13.309v7.46h4.914a1.063,1.063,0,0,0,1.065-1.064V1.064A1.064,1.064,0,0,0,18.224,0" transform="translate(0 0)"/>
</svg>
