<svg xmlns="http://www.w3.org/2000/svg" viewBox="0 0 23.222 23.222">
  <defs>
    <style>
      .cls-1 {
        fill: #2e2e2e;
      }
    </style>
  </defs>
  <path id="if_instagram_3009537" class="cls-1" d="M11.611,0C8.457,0,8.063.015,6.824.07A8.562,8.562,0,0,0,4.006.61,5.686,5.686,0,0,0,1.949,1.949,5.665,5.665,0,0,0,.61,4.006,8.537,8.537,0,0,0,.07,6.824C.012,8.063,0,8.457,0,11.611S.015,15.159.07,16.4a8.567,8.567,0,0,0,.54,2.819,5.694,5.694,0,0,0,1.339,2.057,5.678,5.678,0,0,0,2.057,1.339,8.572,8.572,0,0,0,2.819.54c1.238.058,1.632.07,4.787.07s3.548-.015,4.787-.07a8.592,8.592,0,0,0,2.819-.54,5.934,5.934,0,0,0,3.4-3.4,8.567,8.567,0,0,0,.54-2.819c.058-1.238.07-1.632.07-4.787s-.015-3.548-.07-4.787a8.587,8.587,0,0,0-.54-2.819,5.7,5.7,0,0,0-1.339-2.057A5.657,5.657,0,0,0,19.216.61,8.542,8.542,0,0,0,16.4.07C15.159.012,14.765,0,11.611,0Zm0,2.09c3.1,0,3.469.015,4.693.069a6.4,6.4,0,0,1,2.155.4,3.821,3.821,0,0,1,2.2,2.2,6.411,6.411,0,0,1,.4,2.155c.055,1.225.068,1.593.068,4.693s-.015,3.469-.072,4.693a6.534,6.534,0,0,1-.407,2.155,3.687,3.687,0,0,1-.87,1.337,3.622,3.622,0,0,1-1.335.867,6.458,6.458,0,0,1-2.163.4c-1.233.055-1.6.068-4.7.068s-3.47-.015-4.7-.072a6.584,6.584,0,0,1-2.163-.407,3.6,3.6,0,0,1-1.334-.87,3.526,3.526,0,0,1-.871-1.335,6.589,6.589,0,0,1-.406-2.163c-.044-1.219-.059-1.6-.059-4.687s.015-3.47.059-4.7a6.582,6.582,0,0,1,.406-2.162A3.442,3.442,0,0,1,3.383,3.4a3.434,3.434,0,0,1,1.334-.869,6.426,6.426,0,0,1,2.149-.407c1.234-.044,1.6-.058,4.7-.058l.044.029Zm0,3.559a5.962,5.962,0,1,0,5.962,5.962,5.962,5.962,0,0,0-5.962-5.962Zm0,9.832a3.87,3.87,0,1,1,3.87-3.87A3.869,3.869,0,0,1,11.611,15.481ZM19.2,5.414a1.393,1.393,0,1,1-1.393-1.392A1.394,1.394,0,0,1,19.2,5.414Z" transform="translate(0 0)"/>
</svg>
