<?xml version="1.0" encoding="utf-8"?>
<!-- Generator: Adobe Illustrator 22.1.0, SVG Export Plug-In . SVG Version: 6.00 Build 0)  -->
<svg version="1.1" id="Слой_1" xmlns="http://www.w3.org/2000/svg" xmlns:xlink="http://www.w3.org/1999/xlink" x="0px" y="0px"
	 viewBox="0 0 297.6 153.7" style="enable-background:new 0 0 297.6 153.7;" xml:space="preserve">
<style type="text/css">
	.st0{fill:#6FA1D9;}
	.st1{fill:#303030;}
</style>
<g>
	<path class="st0" d="M89.5,112.5c-10.8,0-19.5-8.8-19.5-19.5V70.3c0-16,13-29.1,29-29.1c16,0,29.1,13,29.1,29.1
		c0,12.6-8.1,23.6-19.7,27.5C106.2,106.3,98.6,112.5,89.5,112.5z M99,52.4c-9.8,0-17.9,8-17.9,17.9V93c0,4.6,3.7,8.3,8.3,8.3
		c4.5,0,8.2-3.6,8.3-8.1l0.1-4.5l4.4-0.8c8.4-1.6,14.5-9,14.5-17.5C116.9,60.4,108.8,52.4,99,52.4z"/>
</g>
<g>
	<path class="st1" d="M163.8,45.7c1.9,0.8,3.3,2,4.3,3.6c1,1.6,1.5,3.4,1.5,5.5c0,2.1-0.5,3.9-1.5,5.5c-1,1.5-2.5,2.7-4.3,3.6
		c-1.9,0.8-4.1,1.3-6.6,1.3h-5.8v7.3h-7.9v-28h13.8C159.7,44.4,161.9,44.9,163.8,45.7z M160.4,57.8c0.8-0.7,1.2-1.7,1.2-3
		c0-1.3-0.4-2.3-1.2-3c-0.8-0.7-2.1-1.1-3.7-1.1h-5.3v8.2h5.3C158.3,58.9,159.6,58.5,160.4,57.8z"/>
	<path class="st1" d="M177.3,69.6c-2.3-2.3-3.5-5.5-3.5-9.6V44.4h7.9v15.3c0,4.5,1.8,6.7,5.3,6.7c3.5,0,5.3-2.2,5.3-6.7V44.4h7.8V60
		c0,4.2-1.2,7.4-3.5,9.6c-2.3,2.3-5.5,3.4-9.7,3.4C182.8,73,179.6,71.9,177.3,69.6z"/>
	<path class="st1" d="M213.7,50.6v6.2H226v6.1h-12.4v9.6h-7.9v-28h22v6.1H213.7z"/>
	<path class="st1" d="M148.1,107.4c-2.2-1.3-3.9-3-5.2-5.2c-1.3-2.2-1.9-4.7-1.9-7.5c0-2.8,0.6-5.3,1.9-7.5c1.3-2.2,3-3.9,5.2-5.2
		c2.2-1.3,4.7-1.9,7.5-1.9c2.8,0,5.3,0.6,7.5,1.9c2.2,1.3,3.9,3,5.2,5.2c1.3,2.2,1.9,4.7,1.9,7.5c0,2.8-0.6,5.3-1.9,7.5
		c-1.3,2.2-3,3.9-5.2,5.2c-2.2,1.3-4.7,1.9-7.5,1.9C152.8,109.3,150.3,108.6,148.1,107.4z M159.2,101.7c1.1-0.7,1.9-1.6,2.5-2.8
		c0.6-1.2,0.9-2.6,0.9-4.2s-0.3-3-0.9-4.2c-0.6-1.2-1.5-2.2-2.5-2.8c-1.1-0.7-2.3-1-3.6-1c-1.3,0-2.5,0.3-3.6,1
		c-1.1,0.7-1.9,1.6-2.5,2.8c-0.6,1.2-0.9,2.6-0.9,4.2s0.3,3,0.9,4.2c0.6,1.2,1.5,2.2,2.5,2.8c1.1,0.7,2.3,1,3.6,1
		C156.9,102.7,158.1,102.4,159.2,101.7z"/>
	<path class="st1" d="M184.3,98.5l-2.9,3.2v7h-7.6v-28h7.6v11.6l10.5-11.6h8.4l-11.1,12.4l11.6,15.6H192L184.3,98.5z"/>
	<circle class="st1" cx="209.7" cy="104.6" r="3.9"/>
	<polygon class="st1" points="213.1,96.8 206.3,96.8 205.7,80.7 213.7,80.7 	"/>
</g>
</svg>
