<svg xmlns="http://www.w3.org/2000/svg" viewBox="0 0 25.717 14.649">
  <defs>
    <style>
      .cls-1 {
        fill: #2e2e2e;
      }
    </style>
  </defs>
  <path id="if_vk_3009568" class="cls-1" d="M12.538,19.745h1.54a1.3,1.3,0,0,0,.7-.3A1.131,1.131,0,0,0,15,18.765s-.033-2.065.931-2.368,2.156,1.993,3.441,2.875a2.459,2.459,0,0,0,1.72.529l3.441-.047s1.8-.113.95-1.528a11.166,11.166,0,0,0-2.541-2.958c-2.156-1.994-1.867-1.673.724-5.13C25.245,8.034,25.889,6.747,25.68,6.2c-.178-.514-1.35-.387-1.35-.387l-3.86.033a.888.888,0,0,0-.5.1,1.058,1.058,0,0,0-.336.419A22.037,22.037,0,0,1,18.2,9.384c-1.739,2.924-2.43,3.085-2.7,2.892-.647-.419-.481-1.693-.481-2.606,0-2.83.433-4.018-.837-4.324a7.082,7.082,0,0,0-1.806-.178A8.328,8.328,0,0,0,9.167,5.5c-.434.218-.772.7-.578.723A1.715,1.715,0,0,1,9.73,6.8a3.688,3.688,0,0,1,.385,1.753s.226,3.339-.529,3.754c-.53.281-1.238-.3-2.781-2.953A24.024,24.024,0,0,1,5.421,6.493a1.2,1.2,0,0,0-.32-.435,1.7,1.7,0,0,0-.6-.241L.823,5.849s-.546.017-.738.257c-.178.209-.017.659-.017.659S2.946,13.5,6.21,16.894A8.847,8.847,0,0,0,12.592,19.8l-.054-.059Z" transform="translate(-0.001 -5.166)"/>
</svg>
